<svg width="20" height="24" viewBox="0 0 20 24" fill="none" xmlns="http://www.w3.org/2000/svg">
<path fill-rule="evenodd" clip-rule="evenodd" d="M5.51207 6.52198H3.01922C1.64213 6.52198 0.526367 7.63739 0.526367 9.01193V20.9641C0.526367 22.3396 1.64307 23.454 3.01922 23.454H16.9799C18.357 23.454 19.4728 22.3386 19.4728 20.9641V9.01193C19.4728 7.63645 18.3561 6.52198 16.9799 6.52198H14.4871V5.02819C14.4871 2.55232 12.4783 0.545898 9.99958 0.545898C7.52083 0.545898 5.51207 2.55232 5.51207 5.02819V6.52198ZM14.4871 7.51815V12.9966C14.4871 13.2717 14.2634 13.4942 13.9889 13.4942C13.7144 13.4942 13.4907 13.2708 13.4907 12.9966V7.51815H6.5094V12.9966C6.5094 13.2717 6.28568 13.4942 6.0112 13.4942C5.73673 13.4942 5.51301 13.2708 5.51301 12.9966V7.51815H3.02016C2.19391 7.51815 1.52464 8.18664 1.52464 9.01193V20.9641C1.52464 21.7894 2.19391 22.4579 3.02016 22.4579H16.9809C17.8071 22.4579 18.4764 21.7894 18.4764 20.9641V9.01193C18.4764 8.18664 17.8071 7.51815 16.9809 7.51815H14.488H14.4871ZM13.4898 6.52198V5.02819C13.4898 3.10252 11.9275 1.54207 9.99958 1.54207C8.07166 1.54207 6.5094 3.10252 6.5094 5.02819V6.52198H13.4898Z" fill="#EB6101" stroke="#EB6101" stroke-width="0.5"/>
</svg>
