<svg width="21" height="24" viewBox="0 0 21 24" fill="none" xmlns="http://www.w3.org/2000/svg">
<path fill-rule="evenodd" clip-rule="evenodd" d="M5.23525 5.02793C5.23525 2.23192 7.61136 0 10.5 0C13.3886 0 15.7647 2.23192 15.7647 5.02793V5.97633H17.8297C19.5604 5.97633 21 7.31613 21 9.01184V20.9645C21 22.659 19.5617 24 17.8297 24H3.17026C1.43955 24 0 22.6602 0 20.9645V9.01184C0 7.31733 1.43829 5.97633 3.17026 5.97633H5.23525V5.02793ZM10.5 2.08712C8.7614 2.08712 7.38776 3.42221 7.38776 5.02793V5.97633H13.6122V5.02793C13.6122 3.42221 12.2386 2.08712 10.5 2.08712ZM3.17124 8.06345C2.58945 8.06345 2.1535 8.50655 2.1535 9.01184V20.9645C2.1535 21.4698 2.58946 21.9129 3.17124 21.9129H17.8307C18.4125 21.9129 18.8485 21.4698 18.8485 20.9645V9.01184C18.8485 8.50655 18.4125 8.06345 17.8307 8.06345H15.7647V12.9967C15.7647 13.5925 15.2623 14.0398 14.689 14.0398C14.115 14.0398 13.6132 13.5909 13.6132 12.9967V8.06345H7.38776V12.9967C7.38776 13.5925 6.88534 14.0398 6.312 14.0398C5.73796 14.0398 5.23624 13.5909 5.23624 12.9967V8.06345H3.17124Z" fill="#EB6101"/>
</svg>
