<svg width="38" height="44" viewBox="0 0 38 44" fill="none" xmlns="http://www.w3.org/2000/svg">
<path fill-rule="evenodd" clip-rule="evenodd" d="M10.4728 11.9561H5.73642C3.11996 11.9561 1 14.0011 1 16.5211V38.4334C1 40.9551 3.12174 42.9983 5.73642 42.9983H32.2618C34.8783 42.9983 36.9982 40.9534 36.9982 38.4334V16.5211C36.9982 13.9993 34.8765 11.9561 32.2618 11.9561H27.5254V9.21754C27.5254 4.67844 23.7087 1 18.9991 1C14.2895 1 10.4728 4.67844 10.4728 9.21754V11.9561ZM27.5254 13.7825V23.8263C27.5254 24.3307 27.1003 24.7386 26.5788 24.7386C26.0573 24.7386 25.6322 24.3289 25.6322 23.8263V13.7825H12.3678V23.8263C12.3678 24.3307 11.9427 24.7386 11.4212 24.7386C10.8997 24.7386 10.4746 24.3289 10.4746 23.8263V13.7825H5.7382C4.16833 13.7825 2.89671 15.008 2.89671 16.5211V38.4334C2.89671 39.9464 4.16833 41.172 5.7382 41.172H32.2636C33.8335 41.172 35.1051 39.9464 35.1051 38.4334V16.5211C35.1051 15.008 33.8335 13.7825 32.2636 13.7825H27.5272H27.5254ZM25.6304 11.9561V9.21754C25.6304 5.68713 22.6621 2.82631 18.9991 2.82631C15.3361 2.82631 12.3678 5.68713 12.3678 9.21754V11.9561H25.6304Z" fill="#A6A6A6" stroke="#A6A6A6" stroke-width="0.5"/>
</svg>
