<svg width="20" height="24" viewBox="0 0 20 24" fill="none" xmlns="http://www.w3.org/2000/svg">
<path fill-rule="evenodd" clip-rule="evenodd" d="M5.51201 6.52155H3.01916C1.64207 6.52155 0.526306 7.63696 0.526306 9.01151V20.9637C0.526306 22.3391 1.64301 23.4536 3.01916 23.4536H16.9799C18.357 23.4536 19.4727 22.3382 19.4727 20.9637V9.01151C19.4727 7.63602 18.356 6.52155 16.9799 6.52155H14.487V5.02777C14.487 2.55189 12.4783 0.545471 9.99952 0.545471C7.52077 0.545471 5.51201 2.55189 5.51201 5.02777V6.52155ZM14.487 7.51772V12.9962C14.487 13.2713 14.2633 13.4938 13.9888 13.4938C13.7144 13.4938 13.4906 13.2703 13.4906 12.9962V7.51772H6.50934V12.9962C6.50934 13.2713 6.28562 13.4938 6.01114 13.4938C5.73667 13.4938 5.51295 13.2703 5.51295 12.9962V7.51772H3.0201C2.19385 7.51772 1.52457 8.18621 1.52457 9.01151V20.9637C1.52457 21.789 2.19385 22.4575 3.0201 22.4575H16.9808C17.8071 22.4575 18.4763 21.789 18.4763 20.9637V9.01151C18.4763 8.18621 17.8071 7.51772 16.9808 7.51772H14.488H14.487ZM13.4897 6.52155V5.02777C13.4897 3.10209 11.9274 1.54164 9.99952 1.54164C8.0716 1.54164 6.50934 3.10209 6.50934 5.02777V6.52155H13.4897Z" fill="white" stroke="white" stroke-width="0.5"/>
</svg>
